<svg width="32" height="32" viewBox="0 0 32 32" fill="none" xmlns="http://www.w3.org/2000/svg">
  <!-- Background circle -->
  <circle cx="16" cy="16" r="16" fill="#00AEEF"/>
  
  <!-- Sun rays -->
  <circle cx="26" cy="6" r="3" fill="#FBE8A6"/>
  <path d="M26 2 L26 4 M30 6 L28 6 M26 10 L26 8 M22 6 L24 6" stroke="#FBE8A6" stroke-width="1"/>
  
  <!-- Palm tree trunk -->
  <rect x="15" y="20" width="2" height="6" fill="#8B4513"/>
  
  <!-- Palm tree leaves -->
  <path d="M16 20 L12 16 L16 12 L20 16 L16 20" fill="#228B22"/>
  <path d="M16 20 L10 18 L14 14 L18 18 L16 20" fill="#228B22"/>
  <path d="M16 20 L22 18 L18 14 L14 18 L16 20" fill="#228B22"/>
  <path d="M16 20 L14 22 L16 18 L18 22 L16 20" fill="#228B22"/>
  
  <!-- Beach/sand -->
  <path d="M0 26 L32 26 L32 32 L0 32 Z" fill="#FBE8A6"/>
  
  <!-- Small waves -->
  <path d="M4 28 Q6 27 8 28 Q10 29 12 28" stroke="#FFFFFF" stroke-width="0.5" fill="none"/>
  <path d="M16 28 Q18 27 20 28 Q22 29 24 28" stroke="#FFFFFF" stroke-width="0.5" fill="none"/>
</svg> 